<svg xmlns="http://www.w3.org/2000/svg" xmlns:xlink="http://www.w3.org/1999/xlink" viewBox="0 0 76.12 85.22"><defs><style>.cls-1{font-size:8.37px;fill:#240dff;font-family:OpenSans-Bold, Open Sans;font-weight:700;letter-spacing:0.1em;}.cls-2{fill:#ff654a;}.cls-3{fill:url(#Dégradé_sans_nom_11);}.cls-4{fill:url(#Dégradé_sans_nom_10);}.cls-5{fill:url(#Dégradé_sans_nom_12);}.cls-6{fill:#2844ff;}</style><linearGradient id="Dégradé_sans_nom_11" x1="3.06" y1="35.84" x2="52.34" y2="35.84" gradientUnits="userSpaceOnUse"><stop offset="0.3" stop-color="#2844ff"/><stop offset="1" stop-color="#ff654a"/></linearGradient><linearGradient id="Dégradé_sans_nom_10" x1="38.06" y1="76.1" x2="38.06" gradientUnits="userSpaceOnUse"><stop offset="0.57" stop-color="#2844ff"/><stop offset="0.61" stop-color="#3646f3"/><stop offset="0.7" stop-color="#5c4cd3"/><stop offset="0.82" stop-color="#9955a0"/><stop offset="0.97" stop-color="#ed625a"/><stop offset="1" stop-color="#ff654a"/></linearGradient><linearGradient id="Dégradé_sans_nom_12" x1="40.08" y1="23.82" x2="60.02" y2="23.82" gradientUnits="userSpaceOnUse"><stop offset="0.38" stop-color="#2844ff"/><stop offset="1" stop-color="#ff654a"/></linearGradient></defs><g id="Calque_2" data-name="Calque 2"><g id="OBJECTS"><text class="cls-1" transform="translate(12.36 82.77)">FACTU<tspan class="cls-2" x="31.05" y="0">FLEX</tspan></text><polygon class="cls-2" points="15.6 44.46 14.05 46.02 14.05 60.23 24.06 60.23 24.06 52.91 15.6 44.46"/><polygon class="cls-2" points="28.96 55.35 28.96 64.13 38.96 64.13 38.96 45.34 28.96 55.35"/><polygon class="cls-2" points="49.63 34.68 43.87 40.44 43.87 60.53 53.87 60.53 53.87 38.92 49.63 34.68"/><polygon class="cls-3" points="7.07 46.58 3.06 42.56 15.6 30.02 27.72 42.14 48.33 21.53 52.34 25.54 27.72 50.16 15.6 38.04 7.07 46.58"/><path class="cls-4" d="M62.43,51.61a33.75,33.75,0,1,0-10.78,10.8L63.1,73.86a7.63,7.63,0,0,0,10.79,0h0a7.63,7.63,0,0,0,0-10.79ZM34.28,61.06A27.3,27.3,0,1,1,61.06,34.28,27.31,27.31,0,0,1,34.28,61.06Z"/><polygon class="cls-5" points="40.08 18.7 55.17 33.79 60.02 13.85 40.08 18.7"/><path class="cls-6" d="M62.38,51.68A34.39,34.39,0,0,1,51.72,62.36l-.07,0,4.5,4.5a33.82,33.82,0,0,0,8-13.62l-1.68-1.68Z"/></g></g></svg>